<svg width="34" height="48" viewBox="0 0 34 48" fill="none" xmlns="http://www.w3.org/2000/svg">
<path fill-rule="evenodd" clip-rule="evenodd" d="M17.618 0C20.2531 0 23.3097 1.99562 22.5719 4.83151C25.4178 4.30635 27.5258 6.407 28.1582 8.92779C33.7445 7.87746 35.8526 15.86 32.0581 19.221C35.8526 24.5777 29.423 30.9847 24.68 28.674L17.3018 36.0263V48H14.3506V35.7112L10.7669 30.1444C9.39669 29.6193 8.13187 28.4639 7.60486 26.8884C2.01856 30.4595 -3.46234 20.5864 2.75637 16.8053C1.38615 13.5492 2.65097 9.03282 6.55084 8.40263C7.18325 5.67177 9.8183 3.46608 12.6641 4.30635C12.4533 1.57549 15.1938 0 17.618 0ZM15.9316 34.7659L18.4613 32.3501C16.9856 32.2451 15.51 31.2998 14.5614 29.6193C14.0344 29.9344 13.6128 30.1444 13.0858 30.2495L15.9316 34.7659Z" fill="white"/>
</svg>
