<svg width="38" height="41" viewBox="0 0 38 41" fill="none" xmlns="http://www.w3.org/2000/svg">
<path fill-rule="evenodd" clip-rule="evenodd" d="M3.09724 24.7217C4.89542 26.5067 7.06299 27.3992 9.59996 27.3992H29.6727C31.7636 27.3992 33.5409 26.6555 35.0045 25.168C36.4681 23.6805 37.2 21.8742 37.2 19.7492C37.2 17.7942 36.5657 16.0871 35.2972 14.628C34.0288 13.1688 32.4327 12.3259 30.5091 12.0992C30.5091 8.78422 29.373 5.97214 27.1009 3.66297C24.8288 1.3538 22.0618 0.199219 18.8 0.199219C16.1515 0.199219 13.7818 1.00672 11.6909 2.62172C9.59996 4.23672 8.20602 6.34755 7.50905 8.95422C5.39027 9.43589 3.67572 10.5409 2.36542 12.2692C1.05511 13.9976 0.399963 15.9667 0.399963 18.1767C0.399963 20.7551 1.29905 22.9367 3.09724 24.7217ZM12.4857 15.8478H14.3194C14.2608 15.351 14.1268 14.91 13.9175 14.5248C13.711 14.1397 13.443 13.8145 13.1137 13.5494C12.7843 13.2814 12.4061 13.0777 11.9791 12.9381C11.5549 12.7986 11.0943 12.7288 10.5975 12.7288C9.84395 12.7288 9.16572 12.9018 8.56285 13.2479C7.95997 13.5912 7.4827 14.0908 7.13103 14.7467C6.77935 15.4026 6.60352 16.1981 6.60352 17.1331C6.60352 18.0653 6.77656 18.8594 7.12265 19.5153C7.47154 20.1712 7.94602 20.6722 8.5461 21.0183C9.14897 21.3644 9.83278 21.5374 10.5975 21.5374C11.1474 21.5374 11.64 21.4551 12.0754 21.2904C12.5136 21.1229 12.8904 20.8969 13.2058 20.6122C13.524 20.3247 13.7766 19.9995 13.9636 19.6367C14.1534 19.2711 14.272 18.8915 14.3194 18.4979L12.4857 18.4896C12.4438 18.7184 12.3685 18.9222 12.2596 19.1008C12.1536 19.2794 12.0196 19.4315 11.8577 19.5571C11.6958 19.68 11.5102 19.7735 11.3009 19.8376C11.0943 19.9018 10.8697 19.9339 10.6268 19.9339C10.1942 19.9339 9.81324 19.8279 9.4839 19.6158C9.15455 19.4036 8.89777 19.0896 8.71356 18.6738C8.53214 18.2579 8.44143 17.7443 8.44143 17.1331C8.44143 16.5386 8.53214 16.0334 8.71356 15.6176C8.89498 15.1989 9.15037 14.8807 9.47971 14.663C9.80906 14.4425 10.1956 14.3323 10.6394 14.3323C10.885 14.3323 11.1125 14.3672 11.3218 14.4369C11.5339 14.5067 11.7209 14.6072 11.8828 14.7384C12.0447 14.8695 12.1773 15.0286 12.2806 15.2156C12.3838 15.3998 12.4522 15.6106 12.4857 15.8478ZM22.9668 19.5195C23.3213 18.8636 23.4985 18.0681 23.4985 17.1331C23.4985 16.1981 23.3213 15.4026 22.9668 14.7467C22.6152 14.0908 22.1351 13.5912 21.5266 13.2479C20.921 12.9018 20.24 12.7288 19.4836 12.7288C18.7216 12.7288 18.0378 12.9018 17.4321 13.2479C16.8265 13.5912 16.3478 14.0908 15.9961 14.7467C15.6445 15.4026 15.4686 16.1981 15.4686 17.1331C15.4686 18.0653 15.6445 18.8594 15.9961 19.5153C16.3478 20.1712 16.8265 20.6722 17.4321 21.0183C18.0378 21.3644 18.7216 21.5374 19.4836 21.5374C20.24 21.5374 20.921 21.3658 21.5266 21.0225C22.1351 20.6764 22.6152 20.1754 22.9668 19.5195ZM21.3885 15.6008C21.5699 16.0167 21.6606 16.5274 21.6606 17.1331C21.6606 17.7388 21.5699 18.2495 21.3885 18.6654C21.2098 19.0813 20.9573 19.3967 20.6307 19.6116C20.3041 19.8265 19.9218 19.9339 19.4836 19.9339C19.0454 19.9339 18.663 19.8265 18.3364 19.6116C18.0099 19.3967 17.7559 19.0813 17.5745 18.6654C17.3959 18.2495 17.3065 17.7388 17.3065 17.1331C17.3065 16.5274 17.3959 16.0167 17.5745 15.6008C17.7559 15.1849 18.0099 14.8695 18.3364 14.6546C18.663 14.4397 19.0454 14.3323 19.4836 14.3323C19.9218 14.3323 20.3041 14.4397 20.6307 14.6546C20.9573 14.8695 21.2098 15.1849 21.3885 15.6008ZM25.0296 20.5781V19.5135L27.2635 17.5578C27.431 17.4063 27.5735 17.2677 27.6911 17.1421C27.8088 17.0145 27.8985 16.8869 27.9603 16.7593C28.0221 16.6297 28.053 16.4892 28.053 16.3377C28.053 16.1682 28.0161 16.0237 27.9423 15.9041C27.8686 15.7825 27.7669 15.6888 27.6373 15.623C27.5077 15.5572 27.3592 15.5243 27.1917 15.5243C27.0223 15.5243 26.8737 15.5592 26.7462 15.629C26.6186 15.6967 26.5189 15.7954 26.4471 15.925C26.3773 16.0546 26.3424 16.2121 26.3424 16.3975H24.9399C24.9399 15.9808 25.0336 15.621 25.221 15.3179C25.4084 15.0149 25.6716 14.7817 26.0105 14.6182C26.3514 14.4527 26.7471 14.37 27.1977 14.37C27.6622 14.37 28.0659 14.4477 28.4088 14.6032C28.7517 14.7587 29.0169 14.976 29.2043 15.2551C29.3937 15.5323 29.4884 15.8542 29.4884 16.2211C29.4884 16.4543 29.4415 16.6856 29.3478 16.9148C29.2541 17.1441 29.0857 17.3973 28.8424 17.6744C28.6012 17.9515 28.2583 18.2835 27.8137 18.6702L27.0811 19.3461V19.3849H29.5631V20.5781H25.0296Z" fill="white"/>
<path d="M7.79998 40.2016L3.59998 35.8862L4.16002 35.3108L7.40433 38.6442V30.6016H8.19562V38.6442L11.4399 35.3108L12 35.8862L7.79998 40.2016Z" fill="white"/>
<path d="M19.4 40.2016L15.2 35.8862L15.76 35.3108L19.0043 38.6442V30.6016H19.7956V38.6442L23.0399 35.3108L23.6 35.8862L19.4 40.2016Z" fill="white"/>
<path d="M31 40.2016L26.8 35.8862L27.36 35.3108L30.6043 38.6442V30.6016H31.3956V38.6442L34.6399 35.3108L35.2 35.8862L31 40.2016Z" fill="white"/>
</svg>
